<svg xmlns="http://www.w3.org/2000/svg" width="1724" height="891" viewBox="0 0 1724 891" shape-rendering="geometricPrecision">
  <g>
    <path d="M 786.0 216.0 L 773.0 269.0 L 774.0 273.0 L 768.0 275.0 L 768.0 529.0 L 852.0 529.0 L 852.0 236.0 L 845.0 240.0 L 831.0 300.0 L 826.0 302.0 Z M 815.0 282.0 L 817.0 282.0 Z M 837.0 275.0 L 839.0 275.0 Z M 770.0 274.0 L 772.0 274.0 Z M 801.0 253.0 L 803.0 253.0 Z M 791.0 237.0 L 793.0 237.0 Z M 764.0 84.0 L 763.0 115.0 L 772.0 115.0 L 779.0 112.0 L 779.0 110.0 Z M 961.0 83.0 L 945.0 112.0 L 952.0 115.0 L 961.0 116.0 Z M 768.0 52.0 L 764.0 60.0 L 787.0 98.0 L 793.0 111.0 L 788.0 117.0 L 783.0 116.0 L 776.0 120.0 L 772.0 120.0 L 772.0 124.0 L 763.0 139.0 L 768.0 145.0 L 768.0 148.0 L 854.0 148.0 L 857.0 145.0 L 867.0 145.0 L 873.0 149.0 L 873.0 529.0 L 956.0 529.0 L 955.0 145.0 L 961.0 141.0 L 961.0 139.0 L 952.0 124.0 L 953.0 120.0 L 937.0 117.0 L 932.0 113.0 L 932.0 109.0 L 961.0 57.0 L 958.0 56.0 L 956.0 52.0 Z" fill="#f4f3f8" fill-rule="evenodd"/>
    <path d="M 1264.0 643.0 L 1254.0 652.0 L 1254.0 798.0 L 1264.0 789.0 Z M 1263.0 643.0 L 1264.0 789.0 L 1255.0 798.0 L 1254.0 652.0 Z M 767.0 154.0 L 767.0 169.0 L 847.0 169.0 L 847.0 153.0 Z M 767.0 154.0 L 846.0 153.0 L 847.0 168.0 L 768.0 169.0 Z M 976.0 57.0 L 976.0 60.0 L 971.0 63.0 L 974.0 63.0 L 974.0 125.0 L 972.0 136.0 L 979.0 141.0 L 978.0 57.0 Z M 973.0 135.0 L 975.0 135.0 Z M 976.0 134.0 L 978.0 134.0 Z M 747.0 56.0 L 746.0 141.0 L 748.0 141.0 L 748.0 138.0 L 753.0 135.0 L 750.0 135.0 L 752.0 62.0 L 758.0 72.0 L 753.0 62.0 L 751.0 62.0 Z M 748.0 135.0 L 750.0 135.0 Z M 747.0 61.0 L 749.0 61.0 Z M 986.0 50.0 L 986.0 53.0 L 983.0 56.0 L 983.0 142.0 L 986.0 144.0 L 986.0 530.0 L 1243.0 531.0 L 1243.0 515.0 L 1246.0 511.0 L 1292.0 511.0 L 1295.0 514.0 L 1295.0 559.0 L 1290.0 563.0 L 1275.0 563.0 L 1275.0 816.0 L 1292.0 816.0 L 1295.0 819.0 L 1295.0 836.0 L 1650.0 836.0 L 1650.0 819.0 L 1653.0 816.0 L 1673.0 816.0 L 1674.0 258.0 L 1655.0 258.0 L 1651.0 255.0 L 1650.0 210.0 L 1655.0 205.0 L 1674.0 205.0 L 1674.0 51.0 Z M 1650.0 816.0 L 1652.0 816.0 Z M 1293.0 816.0 L 1295.0 816.0 Z M 1239.0 515.0 L 1241.0 515.0 Z M 1293.0 512.0 L 1295.0 512.0 Z M 1244.0 511.0 L 1246.0 511.0 Z M 1292.0 510.0 L 1294.0 510.0 Z M 1238.0 510.0 L 1240.0 510.0 Z M 1287.0 260.0 L 1289.0 260.0 Z M 1239.0 256.0 L 1241.0 256.0 Z M 1242.0 255.0 L 1244.0 255.0 Z M 1241.0 254.0 L 1243.0 254.0 Z M 1647.0 213.0 L 1649.0 213.0 Z M 1240.0 213.0 L 1242.0 213.0 Z M 1240.0 209.0 L 1242.0 209.0 Z M 1650.0 207.0 L 1652.0 207.0 Z M 1243.0 207.0 L 1245.0 207.0 Z M 1246.0 206.0 L 1290.0 205.0 L 1294.0 208.0 L 1295.0 254.0 L 1292.0 257.0 L 1287.0 259.0 L 1248.0 258.0 L 1243.0 254.0 L 1243.0 209.0 Z M 1244.0 206.0 L 1246.0 206.0 Z M 988.0 145.0 L 990.0 145.0 Z M 985.0 143.0 L 987.0 143.0 Z M 51.0 49.0 L 50.0 205.0 L 71.0 205.0 L 76.0 212.0 L 75.0 253.0 L 71.0 257.0 L 50.0 258.0 L 50.0 816.0 L 72.0 816.0 L 75.0 819.0 L 75.0 836.0 L 430.0 836.0 L 431.0 818.0 L 433.0 816.0 L 451.0 815.0 L 450.0 563.0 L 435.0 563.0 L 430.0 559.0 L 430.0 514.0 L 433.0 511.0 L 479.0 511.0 L 482.0 515.0 L 482.0 531.0 L 738.0 531.0 L 738.0 145.0 L 741.0 142.0 L 742.0 57.0 L 738.0 53.0 L 738.0 50.0 Z M 74.0 818.0 L 76.0 818.0 Z M 430.0 816.0 L 433.0 816.0 Z M 73.0 816.0 L 75.0 816.0 Z M 70.0 815.0 L 72.0 815.0 Z M 434.0 814.0 L 436.0 814.0 Z M 72.0 814.0 L 74.0 814.0 Z M 479.0 511.0 L 481.0 511.0 Z M 437.0 510.0 L 439.0 510.0 Z M 477.0 260.0 L 479.0 260.0 Z M 434.0 259.0 L 436.0 259.0 Z M 430.0 259.0 L 432.0 259.0 Z M 482.0 258.0 L 484.0 258.0 Z M 51.0 258.0 L 53.0 258.0 Z M 71.0 257.0 L 73.0 257.0 Z M 481.0 255.0 L 483.0 255.0 Z M 430.0 207.0 L 432.0 207.0 Z M 482.0 206.0 L 484.0 206.0 Z M 433.0 206.0 L 477.0 205.0 L 481.0 208.0 L 482.0 253.0 L 479.0 257.0 L 435.0 258.0 L 430.0 254.0 L 430.0 209.0 Z M 76.0 206.0 L 78.0 206.0 Z M 736.0 149.0 L 738.0 149.0 Z M 738.0 142.0 L 740.0 142.0 Z M 735.0 109.0 L 737.0 109.0 Z M 736.0 52.0 L 738.0 52.0 Z" fill="#ececec" fill-rule="evenodd"/>
    <path d="M 1244.0 209.0 L 1244.0 254.0 L 1248.0 257.0 L 1290.0 257.0 L 1294.0 254.0 L 1294.0 210.0 L 1293.0 208.0 L 1290.0 206.0 L 1248.0 206.0 Z M 1283.0 241.0 L 1285.0 243.0 L 1285.0 246.0 L 1280.0 247.0 L 1279.0 245.0 Z M 1253.0 217.0 L 1254.0 216.0 L 1284.0 216.0 L 1285.0 217.0 L 1285.0 235.0 L 1284.0 237.0 L 1274.0 247.0 L 1254.0 247.0 L 1253.0 246.0 Z M 431.0 209.0 L 431.0 254.0 L 435.0 257.0 L 477.0 257.0 L 479.0 256.0 L 481.0 253.0 L 481.0 210.0 L 480.0 208.0 L 477.0 206.0 L 435.0 206.0 Z M 470.0 218.0 L 472.0 220.0 L 472.0 245.0 L 470.0 247.0 L 443.0 247.0 L 442.0 246.0 Z M 440.0 242.0 L 440.0 217.0 L 441.0 216.0 L 466.0 216.0 L 467.0 217.0 L 441.0 243.0 Z M 24.0 24.0 L 23.0 26.0 L 23.0 863.0 L 25.0 866.0 L 28.0 867.0 L 30.0 866.0 L 66.0 866.0 L 67.0 867.0 L 71.0 866.0 L 434.0 866.0 L 435.0 867.0 L 439.0 866.0 L 474.0 866.0 L 476.0 867.0 L 479.0 866.0 L 481.0 864.0 L 481.0 810.0 L 480.0 809.0 L 480.0 563.0 L 482.0 561.0 L 1243.0 561.0 L 1244.0 562.0 L 1244.0 810.0 L 1245.0 811.0 L 1245.0 819.0 L 1244.0 820.0 L 1244.0 863.0 L 1249.0 867.0 L 1251.0 866.0 L 1287.0 866.0 L 1288.0 867.0 L 1292.0 866.0 L 1654.0 866.0 L 1655.0 867.0 L 1659.0 866.0 L 1662.0 867.0 L 1663.0 866.0 L 1694.0 866.0 L 1696.0 867.0 L 1700.0 865.0 L 1701.0 863.0 L 1701.0 820.0 L 1700.0 819.0 L 1700.0 458.0 L 1701.0 457.0 L 1701.0 104.0 L 1700.0 103.0 L 1700.0 28.0 L 1701.0 27.0 L 1698.0 23.0 L 31.0 23.0 L 28.0 22.0 Z M 1284.0 850.0 L 1285.0 851.0 L 1285.0 856.0 L 1284.0 857.0 L 1279.0 857.0 L 1278.0 855.0 Z M 1582.0 855.0 L 1592.0 846.0 L 1649.0 846.0 L 1651.0 848.0 L 1651.0 856.0 L 1647.0 858.0 L 1646.0 857.0 L 1591.0 857.0 L 1590.0 858.0 L 1589.0 857.0 L 1583.0 857.0 Z M 1506.0 856.0 L 1516.0 846.0 L 1586.0 846.0 L 1587.0 847.0 L 1575.0 858.0 L 1574.0 857.0 L 1509.0 857.0 L 1508.0 858.0 Z M 1354.0 857.0 L 1354.0 855.0 L 1364.0 846.0 L 1510.0 846.0 L 1511.0 847.0 L 1502.0 857.0 L 1498.0 858.0 L 1496.0 857.0 L 1357.0 857.0 L 1355.0 858.0 Z M 1294.0 856.0 L 1294.0 847.0 L 1295.0 846.0 L 1358.0 846.0 L 1359.0 847.0 L 1349.0 857.0 L 1346.0 858.0 L 1345.0 857.0 L 1343.0 858.0 L 1342.0 857.0 L 1303.0 857.0 L 1302.0 858.0 L 1297.0 857.0 L 1296.0 858.0 Z M 288.0 856.0 L 298.0 846.0 L 430.0 846.0 L 431.0 847.0 L 431.0 856.0 L 429.0 858.0 L 428.0 857.0 L 426.0 858.0 L 425.0 857.0 L 424.0 858.0 L 423.0 857.0 L 295.0 857.0 L 294.0 858.0 L 291.0 857.0 L 290.0 858.0 Z M 212.0 856.0 L 222.0 846.0 L 292.0 846.0 L 293.0 847.0 L 281.0 858.0 L 279.0 857.0 L 221.0 857.0 L 220.0 858.0 L 215.0 857.0 L 214.0 858.0 Z M 136.0 856.0 L 146.0 846.0 L 216.0 846.0 L 217.0 847.0 L 207.0 857.0 L 142.0 857.0 L 140.0 858.0 Z M 74.0 856.0 L 74.0 847.0 L 75.0 846.0 L 140.0 846.0 L 141.0 847.0 L 133.0 856.0 L 127.0 858.0 L 126.0 857.0 L 78.0 857.0 L 77.0 858.0 Z M 471.0 827.0 L 472.0 828.0 L 472.0 856.0 L 471.0 857.0 L 442.0 857.0 L 441.0 856.0 Z M 1690.0 826.0 L 1691.0 827.0 L 1691.0 856.0 L 1690.0 857.0 L 1661.0 857.0 L 1660.0 854.0 L 1664.0 849.0 L 1687.0 826.0 Z M 1660.0 848.0 L 1660.0 827.0 L 1661.0 826.0 L 1682.0 826.0 L 1683.0 827.0 L 1661.0 849.0 Z M 1254.0 827.0 L 1255.0 826.0 L 1284.0 826.0 L 1285.0 827.0 L 1285.0 845.0 L 1273.0 857.0 L 1255.0 857.0 L 1254.0 856.0 Z M 440.0 847.0 L 441.0 846.0 L 440.0 828.0 L 442.0 826.0 L 465.0 826.0 L 466.0 827.0 L 445.0 849.0 L 442.0 851.0 Z M 32.0 827.0 L 33.0 826.0 L 64.0 826.0 L 65.0 827.0 L 65.0 856.0 L 64.0 857.0 L 33.0 857.0 L 32.0 856.0 Z M 39.0 799.0 L 40.0 800.0 L 40.0 816.0 L 39.0 817.0 L 33.0 817.0 L 32.0 816.0 L 32.0 806.0 Z M 1264.0 794.0 L 1265.0 795.0 L 1265.0 815.0 L 1263.0 817.0 L 1255.0 817.0 L 1253.0 814.0 L 1254.0 813.0 L 1253.0 804.0 Z M 470.0 750.0 L 472.0 752.0 L 472.0 815.0 L 470.0 817.0 L 462.0 817.0 L 460.0 813.0 L 460.0 760.0 Z M 1691.0 747.0 L 1692.0 748.0 L 1692.0 815.0 L 1690.0 817.0 L 1685.0 817.0 L 1683.0 815.0 L 1684.0 811.0 L 1684.0 753.0 Z M 39.0 723.0 L 40.0 724.0 L 40.0 795.0 L 33.0 801.0 L 32.0 800.0 L 32.0 730.0 Z M 470.0 674.0 L 472.0 676.0 L 472.0 744.0 L 461.0 755.0 L 460.0 754.0 L 460.0 684.0 Z M 1691.0 671.0 L 1692.0 672.0 L 1692.0 742.0 L 1685.0 749.0 L 1684.0 748.0 L 1684.0 677.0 Z M 39.0 647.0 L 40.0 648.0 L 40.0 719.0 L 33.0 725.0 L 32.0 724.0 L 32.0 654.0 Z M 1264.0 642.0 L 1265.0 643.0 L 1265.0 789.0 L 1254.0 799.0 L 1253.0 798.0 L 1253.0 652.0 Z M 470.0 598.0 L 472.0 600.0 L 472.0 668.0 L 461.0 679.0 L 460.0 678.0 L 460.0 608.0 Z M 1264.0 566.0 L 1265.0 567.0 L 1265.0 637.0 L 1254.0 647.0 L 1253.0 646.0 L 1253.0 576.0 Z M 1261.0 561.0 L 1262.0 564.0 L 1254.0 571.0 L 1253.0 570.0 L 1253.0 563.0 L 1255.0 561.0 L 1256.0 562.0 Z M 470.0 561.0 L 472.0 564.0 L 472.0 592.0 L 461.0 603.0 L 460.0 602.0 L 460.0 563.0 L 463.0 561.0 Z M 1284.0 546.0 L 1285.0 551.0 L 1284.0 552.0 L 1279.0 552.0 L 1278.0 551.0 Z M 1202.0 551.0 L 1212.0 541.0 L 1243.0 541.0 L 1244.0 542.0 L 1244.0 551.0 L 1242.0 553.0 L 1241.0 552.0 L 1205.0 552.0 L 1204.0 553.0 Z M 1050.0 551.0 L 1060.0 541.0 L 1206.0 541.0 L 1207.0 542.0 L 1196.0 553.0 L 1195.0 552.0 L 1193.0 553.0 L 1192.0 552.0 L 1053.0 552.0 L 1052.0 553.0 Z M 974.0 552.0 L 984.0 541.0 L 1054.0 541.0 L 1055.0 542.0 L 1045.0 552.0 L 977.0 552.0 L 976.0 553.0 Z M 593.0 551.0 L 603.0 541.0 L 673.0 541.0 L 674.0 542.0 L 663.0 553.0 L 662.0 552.0 L 596.0 552.0 L 595.0 553.0 Z M 517.0 551.0 L 527.0 541.0 L 597.0 541.0 L 598.0 542.0 L 589.0 552.0 L 527.0 552.0 L 526.0 553.0 Z M 480.0 548.0 L 482.0 541.0 L 521.0 541.0 L 522.0 542.0 L 513.0 552.0 L 482.0 552.0 Z M 745.0 551.0 L 756.0 540.0 L 758.0 541.0 L 902.0 541.0 L 903.0 542.0 L 893.0 552.0 L 748.0 552.0 L 747.0 553.0 Z M 470.0 522.0 L 472.0 524.0 L 472.0 533.0 L 471.0 534.0 L 471.0 549.0 L 472.0 550.0 L 470.0 552.0 L 442.0 552.0 L 441.0 551.0 Z M 1253.0 522.0 L 1254.0 521.0 L 1284.0 521.0 L 1285.0 522.0 L 1285.0 541.0 L 1274.0 552.0 L 1254.0 552.0 L 1253.0 551.0 Z M 440.0 546.0 L 440.0 522.0 L 441.0 521.0 L 465.0 521.0 L 466.0 522.0 L 442.0 547.0 Z M 1691.0 519.0 L 1692.0 520.0 L 1692.0 591.0 L 1688.0 594.0 L 1692.0 596.0 L 1692.0 666.0 L 1685.0 673.0 L 1684.0 672.0 L 1684.0 525.0 Z M 39.0 495.0 L 40.0 496.0 L 40.0 643.0 L 33.0 649.0 L 32.0 648.0 L 32.0 578.0 L 35.0 575.0 L 32.0 572.0 L 32.0 502.0 Z M 975.0 474.0 L 977.0 476.0 L 976.0 477.0 L 977.0 478.0 L 977.0 533.0 L 976.0 537.0 L 979.0 542.0 L 968.0 553.0 L 967.0 552.0 L 901.0 552.0 L 900.0 553.0 L 898.0 550.0 L 908.0 541.0 L 966.0 541.0 L 968.0 539.0 L 969.0 535.0 L 967.0 532.0 L 967.0 482.0 Z M 1691.0 443.0 L 1692.0 444.0 L 1692.0 514.0 L 1685.0 521.0 L 1684.0 520.0 L 1684.0 449.0 Z M 39.0 419.0 L 40.0 420.0 L 40.0 491.0 L 33.0 497.0 L 32.0 496.0 L 32.0 426.0 Z M 756.0 388.0 L 757.0 389.0 L 757.0 460.0 L 756.0 461.0 L 757.0 463.0 L 757.0 533.0 L 756.0 537.0 L 741.0 552.0 L 670.0 552.0 L 669.0 551.0 L 679.0 541.0 L 745.0 541.0 L 747.0 540.0 L 748.0 538.0 L 748.0 396.0 Z M 1691.0 367.0 L 1692.0 368.0 L 1692.0 438.0 L 1685.0 444.0 L 1684.0 443.0 L 1684.0 374.0 Z M 39.0 343.0 L 40.0 344.0 L 40.0 414.0 L 33.0 421.0 L 32.0 420.0 L 32.0 350.0 Z M 975.0 321.0 L 976.0 322.0 L 976.0 458.0 L 977.0 459.0 L 976.0 466.0 L 977.0 467.0 L 968.0 477.0 L 967.0 476.0 L 967.0 405.0 L 968.0 404.0 L 967.0 401.0 L 967.0 329.0 Z M 756.0 312.0 L 757.0 313.0 L 757.0 383.0 L 749.0 391.0 L 748.0 390.0 L 748.0 320.0 Z M 820.0 275.0 L 825.0 275.0 L 828.0 279.0 L 831.0 275.0 L 832.0 276.0 L 830.0 288.0 L 827.0 293.0 L 825.0 292.0 L 825.0 290.0 L 819.0 279.0 Z M 1691.0 257.0 L 1692.0 258.0 L 1692.0 286.0 L 1689.0 289.0 L 1689.0 291.0 L 1692.0 292.0 L 1692.0 362.0 L 1685.0 368.0 L 1684.0 367.0 L 1684.0 258.0 L 1685.0 257.0 Z M 39.0 256.0 L 40.0 257.0 L 40.0 338.0 L 33.0 345.0 L 32.0 344.0 L 32.0 273.0 L 35.0 271.0 L 35.0 269.0 L 32.0 268.0 L 32.0 257.0 L 33.0 256.0 Z M 836.0 255.0 L 837.0 259.0 L 834.0 271.0 L 832.0 273.0 L 831.0 269.0 L 834.0 257.0 Z M 810.0 255.0 L 815.0 255.0 L 818.0 258.0 L 818.0 260.0 L 824.0 271.0 L 823.0 273.0 L 817.0 273.0 L 809.0 257.0 Z M 771.0 255.0 L 772.0 256.0 L 771.0 264.0 L 769.0 269.0 L 767.0 270.0 L 766.0 269.0 L 766.0 257.0 L 768.0 255.0 Z M 820.0 254.0 L 832.0 254.0 L 833.0 255.0 L 828.0 271.0 L 825.0 269.0 L 819.0 257.0 Z M 975.0 245.0 L 976.0 246.0 L 976.0 317.0 L 968.0 324.0 L 967.0 323.0 L 967.0 253.0 Z M 61.0 246.0 L 63.0 243.0 L 65.0 244.0 L 63.0 247.0 Z M 756.0 236.0 L 757.0 237.0 L 757.0 307.0 L 749.0 315.0 L 748.0 314.0 L 748.0 244.0 Z M 841.0 235.0 L 842.0 238.0 L 840.0 243.0 L 839.0 251.0 L 837.0 253.0 L 836.0 252.0 L 839.0 236.0 Z M 801.0 235.0 L 806.0 235.0 L 808.0 237.0 L 814.0 250.0 L 813.0 253.0 L 808.0 253.0 L 806.0 251.0 L 806.0 249.0 L 800.0 238.0 Z M 776.0 235.0 L 777.0 239.0 L 774.0 251.0 L 772.0 253.0 L 770.0 253.0 L 769.0 252.0 L 772.0 249.0 L 774.0 236.0 Z M 809.0 235.0 L 811.0 233.0 L 836.0 233.0 L 838.0 235.0 L 836.0 239.0 L 834.0 250.0 L 833.0 251.0 L 817.0 251.0 Z M 771.0 233.0 L 773.0 235.0 L 770.0 246.0 L 767.0 249.0 L 766.0 248.0 L 766.0 235.0 L 768.0 233.0 Z M 1691.0 216.0 L 1692.0 217.0 L 1692.0 246.0 L 1691.0 247.0 L 1661.0 247.0 L 1660.0 246.0 L 1661.0 244.0 L 1689.0 216.0 Z M 1660.0 239.0 L 1660.0 217.0 L 1661.0 216.0 L 1684.0 216.0 L 1685.0 217.0 L 1662.0 240.0 Z M 847.0 215.0 L 848.0 216.0 L 848.0 231.0 L 846.0 233.0 L 842.0 232.0 L 841.0 228.0 L 843.0 223.0 L 843.0 219.0 Z M 781.0 215.0 L 782.0 216.0 L 779.0 231.0 L 777.0 232.0 L 776.0 229.0 L 778.0 224.0 L 779.0 216.0 Z M 32.0 217.0 L 34.0 215.0 L 43.0 215.0 L 44.0 216.0 L 47.0 215.0 L 64.0 215.0 L 65.0 216.0 L 65.0 237.0 L 64.0 239.0 L 55.0 247.0 L 34.0 247.0 L 32.0 245.0 Z M 792.0 214.0 L 793.0 215.0 L 795.0 214.0 L 798.0 216.0 L 805.0 230.0 L 804.0 232.0 L 799.0 233.0 L 797.0 231.0 L 790.0 217.0 Z M 786.0 214.0 L 788.0 216.0 L 788.0 218.0 L 796.0 233.0 L 796.0 235.0 L 810.0 263.0 L 822.0 291.0 L 828.0 301.0 L 831.0 294.0 L 833.0 281.0 L 835.0 277.0 L 837.0 265.0 L 843.0 245.0 L 843.0 240.0 L 845.0 237.0 L 852.0 234.0 L 854.0 235.0 L 854.0 530.0 L 853.0 531.0 L 768.0 531.0 L 766.0 529.0 L 766.0 275.0 L 771.0 272.0 L 772.0 270.0 L 772.0 266.0 L 778.0 245.0 L 780.0 232.0 L 782.0 228.0 L 784.0 216.0 Z M 800.0 214.0 L 801.0 213.0 L 841.0 213.0 L 842.0 218.0 L 838.0 231.0 L 808.0 231.0 L 806.0 229.0 Z M 767.0 213.0 L 777.0 213.0 L 778.0 214.0 L 773.0 231.0 L 768.0 231.0 L 766.0 229.0 L 766.0 214.0 Z M 786.0 194.0 L 789.0 196.0 L 795.0 209.0 L 794.0 212.0 L 789.0 212.0 L 786.0 207.0 L 784.0 208.0 L 784.0 210.0 L 782.0 212.0 L 781.0 211.0 L 784.0 196.0 Z M 790.0 194.0 L 791.0 193.0 L 847.0 193.0 L 848.0 194.0 L 848.0 210.0 L 847.0 211.0 L 799.0 211.0 L 797.0 209.0 Z M 767.0 193.0 L 781.0 193.0 L 782.0 194.0 L 781.0 203.0 L 778.0 211.0 L 767.0 211.0 L 766.0 210.0 L 766.0 194.0 Z M 39.0 191.0 L 40.0 192.0 L 40.0 205.0 L 39.0 206.0 L 33.0 206.0 L 32.0 205.0 L 32.0 198.0 Z M 766.0 174.0 L 768.0 172.0 L 846.0 172.0 L 848.0 174.0 L 848.0 189.0 L 847.0 190.0 L 789.0 190.0 L 785.0 186.0 L 783.0 190.0 L 767.0 190.0 L 766.0 189.0 Z M 975.0 169.0 L 976.0 170.0 L 976.0 241.0 L 968.0 248.0 L 967.0 247.0 L 967.0 177.0 Z M 766.0 154.0 L 768.0 152.0 L 847.0 152.0 L 848.0 153.0 L 848.0 169.0 L 847.0 170.0 L 767.0 170.0 L 766.0 169.0 Z M 975.0 151.0 L 976.0 152.0 L 976.0 165.0 L 968.0 172.0 L 967.0 171.0 L 967.0 153.0 L 969.0 151.0 Z M 755.0 151.0 L 757.0 153.0 L 756.0 156.0 L 757.0 158.0 L 757.0 231.0 L 749.0 239.0 L 748.0 238.0 L 748.0 153.0 L 750.0 151.0 Z M 1691.0 139.0 L 1692.0 140.0 L 1692.0 205.0 L 1690.0 207.0 L 1688.0 206.0 L 1686.0 207.0 L 1684.0 205.0 L 1684.0 145.0 Z M 39.0 115.0 L 40.0 116.0 L 40.0 186.0 L 37.0 190.0 L 33.0 192.0 L 32.0 191.0 L 32.0 122.0 Z M 962.0 80.0 L 963.0 81.0 L 963.0 116.0 L 961.0 118.0 L 960.0 117.0 L 953.0 117.0 L 944.0 113.0 L 943.0 111.0 L 959.0 82.0 Z M 763.0 80.0 L 765.0 81.0 L 781.0 110.0 L 781.0 112.0 L 777.0 115.0 L 764.0 118.0 L 762.0 117.0 L 762.0 81.0 Z M 1691.0 62.0 L 1692.0 63.0 L 1692.0 134.0 L 1685.0 141.0 L 1684.0 140.0 L 1683.0 70.0 L 1685.0 66.0 Z M 976.0 56.0 L 979.0 57.0 L 979.0 104.0 L 980.0 105.0 L 980.0 133.0 L 979.0 134.0 L 980.0 135.0 L 979.0 138.0 L 980.0 141.0 L 979.0 142.0 L 977.0 142.0 L 975.0 138.0 L 971.0 136.0 L 965.0 126.0 L 965.0 122.0 L 968.0 121.0 L 968.0 119.0 L 965.0 117.0 L 965.0 72.0 L 970.0 63.0 L 975.0 60.0 Z M 747.0 55.0 L 749.0 57.0 L 749.0 59.0 L 754.0 62.0 L 759.0 71.0 L 759.0 91.0 L 760.0 92.0 L 759.0 117.0 L 756.0 119.0 L 759.0 122.0 L 759.0 126.0 L 754.0 135.0 L 749.0 138.0 L 748.0 142.0 L 745.0 141.0 L 745.0 57.0 Z M 768.0 50.0 L 957.0 50.0 L 958.0 53.0 L 963.0 57.0 L 961.0 63.0 L 937.0 103.0 L 937.0 106.0 L 934.0 110.0 L 934.0 113.0 L 939.0 116.0 L 943.0 115.0 L 955.0 120.0 L 954.0 124.0 L 963.0 139.0 L 963.0 141.0 L 958.0 145.0 L 958.0 530.0 L 957.0 531.0 L 873.0 531.0 L 871.0 529.0 L 871.0 150.0 L 867.0 147.0 L 857.0 147.0 L 854.0 149.0 L 849.0 149.0 L 848.0 150.0 L 768.0 150.0 L 766.0 148.0 L 766.0 145.0 L 762.0 142.0 L 762.0 137.0 L 771.0 123.0 L 770.0 120.0 L 782.0 115.0 L 786.0 116.0 L 790.0 114.0 L 791.0 112.0 L 786.0 100.0 L 762.0 60.0 L 762.0 56.0 Z M 986.0 49.0 L 1673.0 49.0 L 1675.0 51.0 L 1674.0 52.0 L 1675.0 205.0 L 1674.0 206.0 L 1655.0 206.0 L 1651.0 210.0 L 1651.0 253.0 L 1655.0 257.0 L 1674.0 257.0 L 1675.0 258.0 L 1675.0 811.0 L 1673.0 817.0 L 1653.0 817.0 L 1651.0 819.0 L 1651.0 836.0 L 1650.0 837.0 L 1295.0 837.0 L 1294.0 836.0 L 1294.0 819.0 L 1292.0 817.0 L 1275.0 817.0 L 1274.0 816.0 L 1274.0 563.0 L 1275.0 562.0 L 1290.0 562.0 L 1294.0 559.0 L 1294.0 514.0 L 1292.0 512.0 L 1246.0 512.0 L 1244.0 515.0 L 1244.0 531.0 L 1243.0 532.0 L 987.0 532.0 L 985.0 530.0 L 985.0 144.0 L 982.0 142.0 L 982.0 56.0 L 985.0 53.0 Z M 51.0 48.0 L 62.0 48.0 L 63.0 49.0 L 738.0 49.0 L 739.0 53.0 L 743.0 57.0 L 742.0 58.0 L 742.0 101.0 L 743.0 102.0 L 742.0 103.0 L 742.0 142.0 L 739.0 145.0 L 739.0 531.0 L 738.0 532.0 L 482.0 532.0 L 481.0 531.0 L 481.0 515.0 L 479.0 512.0 L 433.0 512.0 L 431.0 514.0 L 431.0 559.0 L 435.0 562.0 L 450.0 562.0 L 451.0 563.0 L 451.0 810.0 L 452.0 815.0 L 450.0 817.0 L 433.0 817.0 L 431.0 820.0 L 431.0 836.0 L 430.0 837.0 L 75.0 837.0 L 74.0 836.0 L 74.0 819.0 L 72.0 817.0 L 50.0 817.0 L 49.0 816.0 L 49.0 258.0 L 51.0 256.0 L 71.0 256.0 L 74.0 253.0 L 74.0 209.0 L 71.0 206.0 L 50.0 206.0 L 49.0 205.0 L 49.0 50.0 Z M 1562.0 38.0 L 1568.0 32.0 L 1691.0 32.0 L 1692.0 33.0 L 1692.0 55.0 L 1685.0 63.0 L 1683.0 62.0 L 1683.0 46.0 L 1684.0 44.0 L 1681.0 40.0 L 1563.0 40.0 Z M 1486.0 39.0 L 1492.0 32.0 L 1562.0 32.0 L 1563.0 33.0 L 1556.0 40.0 L 1487.0 40.0 Z M 1409.0 39.0 L 1415.0 32.0 L 1486.0 32.0 L 1487.0 33.0 L 1480.0 40.0 L 1410.0 40.0 Z M 1333.0 39.0 L 1340.0 32.0 L 1410.0 32.0 L 1411.0 33.0 L 1404.0 40.0 L 1334.0 40.0 Z M 1257.0 39.0 L 1264.0 32.0 L 1334.0 32.0 L 1335.0 33.0 L 1328.0 40.0 L 1258.0 40.0 Z M 1182.0 39.0 L 1188.0 32.0 L 1258.0 32.0 L 1259.0 33.0 L 1252.0 40.0 L 1183.0 40.0 Z M 1104.0 39.0 L 1111.0 32.0 L 1182.0 32.0 L 1183.0 33.0 L 1176.0 40.0 L 1105.0 40.0 Z M 1028.0 39.0 L 1035.0 32.0 L 1105.0 32.0 L 1106.0 33.0 L 1099.0 40.0 L 1029.0 40.0 Z M 953.0 38.0 L 959.0 32.0 L 1029.0 32.0 L 1030.0 33.0 L 1023.0 40.0 L 978.0 40.0 L 974.0 47.0 L 969.0 46.0 L 968.0 42.0 L 964.0 39.0 L 961.0 40.0 L 959.0 39.0 L 958.0 40.0 Z M 801.0 38.0 L 807.0 32.0 L 953.0 32.0 L 954.0 33.0 L 946.0 40.0 L 944.0 39.0 L 807.0 39.0 L 806.0 40.0 Z M 725.0 39.0 L 726.0 36.0 L 730.0 32.0 L 801.0 32.0 L 802.0 33.0 L 796.0 39.0 L 761.0 39.0 L 757.0 41.0 L 756.0 45.0 L 754.0 47.0 L 749.0 46.0 L 748.0 42.0 L 746.0 40.0 L 726.0 40.0 Z M 649.0 39.0 L 655.0 32.0 L 725.0 32.0 L 726.0 33.0 L 719.0 40.0 L 650.0 40.0 Z M 497.0 39.0 L 503.0 32.0 L 649.0 32.0 L 650.0 33.0 L 643.0 40.0 L 498.0 40.0 Z M 421.0 39.0 L 427.0 32.0 L 497.0 32.0 L 498.0 33.0 L 491.0 40.0 L 422.0 40.0 Z M 344.0 39.0 L 350.0 32.0 L 422.0 32.0 L 423.0 33.0 L 418.0 38.0 L 414.0 40.0 L 345.0 40.0 Z M 268.0 39.0 L 274.0 32.0 L 344.0 32.0 L 345.0 33.0 L 338.0 40.0 L 269.0 40.0 Z M 192.0 39.0 L 198.0 32.0 L 268.0 32.0 L 269.0 33.0 L 262.0 40.0 L 193.0 40.0 Z M 116.0 39.0 L 122.0 32.0 L 192.0 32.0 L 193.0 33.0 L 186.0 40.0 L 117.0 40.0 Z M 117.0 32.0 L 118.0 33.0 L 110.0 40.0 L 44.0 39.0 L 40.0 42.0 L 40.0 110.0 L 33.0 117.0 L 32.0 116.0 L 32.0 45.0 L 46.0 31.0 Z M 32.0 39.0 L 32.0 33.0 L 34.0 31.0 L 40.0 31.0 L 41.0 32.0 L 33.0 40.0 Z M 6.0 7.0 L 6.0 882.0 L 7.0 883.0 L 498.0 883.0 L 498.0 579.0 L 499.0 578.0 L 1226.0 578.0 L 1227.0 579.0 L 1227.0 810.0 L 1228.0 811.0 L 1228.0 880.0 L 1227.0 882.0 L 1228.0 883.0 L 1717.0 883.0 L 1717.0 458.0 L 1718.0 457.0 L 1717.0 6.0 L 7.0 6.0 Z M 9.0 9.0 L 10.0 8.0 L 1714.0 8.0 L 1715.0 9.0 L 1715.0 104.0 L 1716.0 105.0 L 1715.0 880.0 L 1714.0 881.0 L 1231.0 881.0 L 1230.0 880.0 L 1230.0 577.0 L 1229.0 576.0 L 496.0 576.0 L 495.0 577.0 L 496.0 879.0 L 494.0 881.0 L 10.0 881.0 L 9.0 880.0 Z" fill="#adadad" fill-rule="evenodd"/>
  </g>
</svg>