<?xml version="1.0" standalone="no"?>
<!DOCTYPE svg PUBLIC "-//W3C//DTD SVG 20010904//EN"
 "http://www.w3.org/TR/2001/REC-SVG-20010904/DTD/svg10.dtd">
<svg version="1.0" xmlns="http://www.w3.org/2000/svg"
 width="512.000000pt" height="512.000000pt" viewBox="0 0 512.000000 512.000000"
 preserveAspectRatio="xMidYMid meet">

<g transform="translate(0.000000,512.000000) scale(0.100000,-0.100000)"
fill="#000000" stroke="none">
<path d="M1440 4200 l0 -920 80 0 80 0 0 840 0 840 840 0 840 0 0 -1160 0
-1160 -200 0 -200 0 0 -1320 0 -1320 80 0 80 0 0 1240 0 1240 640 0 640 0 0
-1240 0 -1240 80 0 80 0 0 1320 0 1320 -520 0 -520 0 0 1240 0 1240 -1000 0
-1000 0 0 -920z"/>
<path d="M4240 4486 l0 -393 -75 -62 c-41 -33 -77 -61 -80 -61 -3 0 -5 97 -5
215 l0 215 -80 0 -80 0 0 -284 0 -284 -120 -97 -120 -97 0 -459 0 -459 80 0
80 0 0 360 0 360 240 0 240 0 0 -80 0 -80 320 0 320 0 0 -1640 0 -1640 80 0
80 0 0 2400 c0 1320 -2 2400 -5 2400 -3 0 -90 -70 -195 -155 -105 -85 -192
-155 -195 -155 -3 0 -5 16 -5 35 l0 35 -80 0 -80 0 0 -104 0 -103 -75 -62
c-41 -33 -77 -61 -80 -61 -3 0 -5 146 -5 325 l0 325 -80 0 -80 0 0 -394z m720
-371 l0 -355 -320 0 -320 0 0 -80 0 -80 -217 0 c-186 0 -215 2 -203 14 24 22
1053 856 1056 856 2 0 4 -160 4 -355z m0 -595 l0 -80 -240 0 -240 0 0 80 0 80
240 0 240 0 0 -80z"/>
<path d="M1680 4720 l0 -80 760 0 760 0 0 80 0 80 -760 0 -760 0 0 -80z"/>
<path d="M1760 4200 l0 -280 680 0 680 0 0 280 0 280 -680 0 -680 0 0 -280z
m1200 0 l0 -120 -520 0 -520 0 0 120 0 120 520 0 520 0 0 -120z"/>
<path d="M1760 3600 l0 -160 80 0 80 0 0 160 0 160 -80 0 -80 0 0 -160z"/>
<path d="M2160 3600 l0 -160 80 0 80 0 0 160 0 160 -80 0 -80 0 0 -160z"/>
<path d="M2560 3600 l0 -160 80 0 80 0 0 160 0 160 -80 0 -80 0 0 -160z"/>
<path d="M2960 3600 l0 -160 80 0 80 0 0 160 0 160 -80 0 -80 0 0 -160z"/>
<path d="M0 1600 l0 -1600 80 0 80 0 0 1520 0 1520 800 0 800 0 0 -1520 0
-1520 80 0 80 0 0 1600 0 1600 -960 0 -960 0 0 -1600z"/>
<path d="M2160 3040 l0 -160 80 0 80 0 0 160 0 160 -80 0 -80 0 0 -160z"/>
<path d="M2560 3040 l0 -160 80 0 80 0 0 160 0 160 -80 0 -80 0 0 -160z"/>
<path d="M2960 3040 l0 -160 80 0 80 0 0 160 0 160 -80 0 -80 0 0 -160z"/>
<path d="M4000 2960 l0 -160 80 0 80 0 0 160 0 160 -80 0 -80 0 0 -160z"/>
<path d="M4320 2960 l0 -160 80 0 80 0 0 160 0 160 -80 0 -80 0 0 -160z"/>
<path d="M4640 2960 l0 -160 80 0 80 0 0 160 0 160 -80 0 -80 0 0 -160z"/>
<path d="M240 2800 l0 -80 720 0 720 0 0 80 0 80 -720 0 -720 0 0 -80z"/>
<path d="M2160 2480 l0 -160 80 0 80 0 0 160 0 160 -80 0 -80 0 0 -160z"/>
<path d="M2560 2480 l0 -160 80 0 80 0 0 160 0 160 -80 0 -80 0 0 -160z"/>
<path d="M4640 2400 l0 -160 80 0 80 0 0 160 0 160 -80 0 -80 0 0 -160z"/>
<path d="M400 2320 l0 -160 80 0 80 0 0 160 0 160 -80 0 -80 0 0 -160z"/>
<path d="M880 2320 l0 -160 80 0 80 0 0 160 0 160 -80 0 -80 0 0 -160z"/>
<path d="M1360 2320 l0 -160 80 0 80 0 0 160 0 160 -80 0 -80 0 0 -160z"/>
<path d="M3120 2240 l0 -80 560 0 560 0 0 80 0 80 -560 0 -560 0 0 -80z"/>
<path d="M2160 1920 l0 -160 80 0 80 0 0 160 0 160 -80 0 -80 0 0 -160z"/>
<path d="M2560 1920 l0 -160 80 0 80 0 0 160 0 160 -80 0 -80 0 0 -160z"/>
<path d="M3280 1000 l0 -1000 80 0 80 0 0 1000 0 1000 -80 0 -80 0 0 -1000z"/>
<path d="M3600 1000 l0 -1000 80 0 80 0 0 1000 0 1000 -80 0 -80 0 0 -1000z"/>
<path d="M3920 1000 l0 -1000 80 0 80 0 0 1000 0 1000 -80 0 -80 0 0 -1000z"/>
<path d="M4640 1840 l0 -160 80 0 80 0 0 160 0 160 -80 0 -80 0 0 -160z"/>
<path d="M400 1680 l0 -160 80 0 80 0 0 160 0 160 -80 0 -80 0 0 -160z"/>
<path d="M880 1680 l0 -160 80 0 80 0 0 160 0 160 -80 0 -80 0 0 -160z"/>
<path d="M1360 1680 l0 -160 80 0 80 0 0 160 0 160 -80 0 -80 0 0 -160z"/>
<path d="M2160 1360 l0 -160 80 0 80 0 0 160 0 160 -80 0 -80 0 0 -160z"/>
<path d="M2560 1360 l0 -160 80 0 80 0 0 160 0 160 -80 0 -80 0 0 -160z"/>
<path d="M4640 1280 l0 -160 80 0 80 0 0 160 0 160 -80 0 -80 0 0 -160z"/>
<path d="M400 1040 l0 -160 80 0 80 0 0 160 0 160 -80 0 -80 0 0 -160z"/>
<path d="M880 1040 l0 -160 80 0 80 0 0 160 0 160 -80 0 -80 0 0 -160z"/>
<path d="M1360 1040 l0 -160 80 0 80 0 0 160 0 160 -80 0 -80 0 0 -160z"/>
<path d="M2160 800 l0 -160 80 0 80 0 0 160 0 160 -80 0 -80 0 0 -160z"/>
<path d="M2560 800 l0 -160 80 0 80 0 0 160 0 160 -80 0 -80 0 0 -160z"/>
<path d="M4640 720 l0 -160 80 0 80 0 0 160 0 160 -80 0 -80 0 0 -160z"/>
<path d="M400 400 l0 -160 80 0 80 0 0 160 0 160 -80 0 -80 0 0 -160z"/>
<path d="M880 400 l0 -160 80 0 80 0 0 160 0 160 -80 0 -80 0 0 -160z"/>
<path d="M1360 400 l0 -160 80 0 80 0 0 160 0 160 -80 0 -80 0 0 -160z"/>
<path d="M2160 240 l0 -160 80 0 80 0 0 160 0 160 -80 0 -80 0 0 -160z"/>
<path d="M2560 240 l0 -160 80 0 80 0 0 160 0 160 -80 0 -80 0 0 -160z"/>
<path d="M4640 160 l0 -160 80 0 80 0 0 160 0 160 -80 0 -80 0 0 -160z"/>
</g>
</svg>
