<?xml version="1.0" standalone="no"?>
<!DOCTYPE svg PUBLIC "-//W3C//DTD SVG 20010904//EN"
 "http://www.w3.org/TR/2001/REC-SVG-20010904/DTD/svg10.dtd">
<svg version="1.0" xmlns="http://www.w3.org/2000/svg"
 width="512.000000pt" height="512.000000pt" viewBox="0 0 512.000000 512.000000"
 preserveAspectRatio="xMidYMid meet">

<g transform="translate(0.000000,512.000000) scale(0.100000,-0.100000)"
fill="#000000" stroke="none">
<path d="M2487 4390 c-116 -20 -228 -107 -280 -219 -40 -84 -55 -213 -41 -343
12 -113 44 -187 108 -256 44 -47 46 -52 46 -108 l0 -59 -183 -92 c-101 -50
-197 -103 -214 -117 -17 -14 -41 -47 -54 -73 -22 -45 -23 -63 -27 -265 l-4
-218 -84 0 -84 0 0 131 c0 72 -4 139 -10 149 -12 22 -61 40 -111 40 l-39 0 0
135 c0 151 -7 168 -72 180 -18 3 -176 5 -351 3 l-319 -3 -24 -28 -24 -28 0
-290 0 -289 -125 0 -125 0 0 580 c0 634 -1 622 58 672 64 54 159 41 225 -30
29 -30 29 -30 11 -63 -11 -21 -19 -65 -22 -115 -4 -72 -1 -88 23 -142 18 -41
47 -80 85 -117 93 -88 88 -90 312 133 221 222 220 219 138 306 -73 77 -137
109 -230 114 -59 3 -86 0 -129 -17 l-54 -20 -51 46 c-71 64 -125 86 -211 86
-123 1 -225 -65 -277 -178 l-23 -50 -3 -602 -3 -603 -112 0 c-141 0 -181 -10
-197 -50 -27 -64 22 -110 118 -110 l32 0 0 -854 c0 -819 1 -855 19 -877 26
-32 86 -32 112 0 16 20 19 41 19 157 l0 134 1970 0 c1442 0 1976 3 1994 11 51
23 55 103 7 128 -14 8 -622 11 -1995 11 l-1976 0 0 645 0 645 2250 0 2250 0 0
-645 0 -645 -139 0 c-139 0 -140 0 -160 -26 -26 -33 -27 -65 -2 -95 18 -23 26
-24 160 -27 l141 -4 0 -133 c0 -115 3 -136 19 -156 26 -32 86 -32 112 0 18 22
19 58 19 877 l0 854 33 0 c95 0 144 46 117 110 -18 44 -55 50 -321 50 l-236 0
-7 46 c-3 26 -6 64 -6 85 l0 37 134 4 c131 3 135 4 178 33 49 35 83 82 98 134
14 52 13 723 -2 772 -15 51 -69 114 -122 142 -41 22 -46 22 -550 25 -330 2
-527 -1 -559 -8 -71 -15 -130 -60 -161 -122 l-26 -52 0 -373 c0 -412 1 -416
63 -482 56 -58 96 -71 236 -71 l124 0 -7 -61 c-3 -34 -6 -73 -6 -85 l0 -24
-329 0 -329 0 -4 218 c-4 202 -5 220 -27 265 -13 26 -37 59 -54 73 -17 14
-113 67 -214 117 l-183 92 0 59 c0 56 2 61 46 108 92 99 129 247 108 441 -22
203 -142 343 -323 377 -60 11 -75 11 -144 0z m176 -166 c41 -21 95 -71 113
-107 8 -15 19 -48 23 -73 l9 -46 -87 7 c-106 8 -199 20 -313 41 l-87 16 15 36
c26 63 90 119 164 143 35 12 125 2 163 -17z m-233 -334 c63 -11 174 -25 246
-31 l131 -12 -8 -43 c-23 -123 -118 -204 -239 -204 -94 0 -179 53 -216 134
-19 43 -44 176 -33 176 2 0 56 -9 119 -20z m-1304 -76 c19 -9 36 -20 39 -23 2
-4 -49 -61 -115 -126 l-118 -118 -22 34 c-27 44 -25 141 5 181 47 63 140 86
211 52z m3656 -72 c23 -22 23 -24 26 -360 2 -185 0 -347 -3 -360 -3 -12 -14
-31 -25 -42 -18 -18 -34 -20 -139 -20 l-120 0 -5 43 c-4 23 -13 106 -20 185
-23 225 -46 247 -251 247 -212 0 -230 -18 -256 -264 -10 -91 -18 -176 -19
-188 0 -23 -2 -23 -120 -23 -115 0 -122 1 -145 25 l-25 24 0 354 0 354 23 20
c12 11 29 23 37 26 8 3 241 5 517 4 l502 -2 23 -23z m-2132 -341 c3 -30 15
-62 29 -82 l23 -31 -71 -72 -71 -71 -71 71 -71 71 26 38 c18 26 26 51 26 80 0
23 2 44 4 46 2 2 42 3 88 2 l83 -1 5 -51z m1711 -371 c14 -140 29 -285 33
-322 l7 -68 -156 0 c-154 0 -155 0 -155 23 0 46 60 608 66 618 3 6 43 9 92 7
l87 -3 26 -255z m-1881 -202 l0 -188 -85 0 -85 0 0 93 c0 113 -12 137 -69 137
-61 0 -74 -24 -79 -136 l-4 -94 -84 0 -84 0 0 190 c0 140 4 199 14 224 12 29
32 43 142 99 l129 66 103 -102 102 -102 0 -187z m636 226 c10 -25 14 -83 14
-224 l0 -190 -84 0 -84 0 -4 94 c-5 112 -18 136 -79 136 -57 0 -69 -24 -69
-137 l0 -93 -85 0 -85 0 0 187 0 188 102 102 102 102 129 -66 c111 -56 131
-70 143 -99z m-1756 -9 l0 -85 -245 0 -245 0 0 85 0 85 245 0 245 0 0 -85z
m160 -320 l0 -85 -325 0 -325 0 0 78 c0 43 3 82 7 85 3 4 150 7 325 7 l318 0
0 -85z"/>
</g>
</svg>
