<?xml version="1.0" encoding="UTF-8"?>
<!-- The Best Svg Icon site in the world: iconSvg.co, Visit us! https://iconsvg.co -->
<svg fill="#000000" width="800px" height="800px" version="1.1" viewBox="144 144 512 512" xmlns="http://www.w3.org/2000/svg">
 <path d="m596.48 591.45h-8.832v-387.93c0-2.7812-2.2539-5.0391-5.0391-5.0391h-161.68c-2.7812 0-5.0391 2.2539-5.0391 5.0391v387.93h-31.809l0.003906-387.93c0-2.7812-2.2539-5.0391-5.0391-5.0391h-161.68c-2.7812 0-5.0391 2.2539-5.0391 5.0391v387.93h-8.8281c-2.7812 0-5.0391 2.2539-5.0391 5.0391 0 2.7812 2.2539 5.0391 5.0391 5.0391h392.97c2.7812 0 5.0391-2.2539 5.0391-5.0391 0-2.7812-2.2578-5.0391-5.0391-5.0391zm-18.906-89.602h-43.816v-293.29h43.816zm-97.707 0v-293.29h43.816v293.29zm-10.078-293.29v293.29h-43.816l0.003907-293.29zm-43.812 303.37h151.6v79.523h-31.598l-0.003907-54.266c0-2.7812-2.2539-5.0391-5.0391-5.0391l-78.32 0.003906c-2.7812 0-5.0391 2.2539-5.0391 5.0391v54.262h-31.598zm109.92 79.523h-68.25v-49.227h68.246zm-161.88-89.602h-43.816v-293.29h43.816zm-97.707 0v-293.29h43.816v293.29zm-10.078-293.29v293.29h-43.816l0.003906-293.29zm-43.812 303.37h151.6v79.523h-31.598l-0.003906-54.266c0-2.7812-2.2539-5.0391-5.0391-5.0391l-78.32 0.003906c-2.7812 0-5.0391 2.2539-5.0391 5.0391v54.262h-31.598zm109.92 79.523h-68.25v-49.227h68.246z"/>
</svg>