<?xml version="1.0" encoding="UTF-8"?>
<!-- Generated by Pixelmator Pro 3.3.12 -->
<svg width="712" height="555" viewBox="0 0 712 555" xmlns="http://www.w3.org/2000/svg">
    <g id="g1">
        <path id="path1" fill="#000000" stroke="none" d="M 121.666656 26 C 73.666656 34.799988 33.799988 69.866638 19.799988 116 C 1.266663 176.666656 29 242.533325 85 270.666656 L 96.333344 276.266663 L 96.333344 328.133331 L 96.333344 380 L 257 380 L 417.666687 380 L 417.666687 226 L 417.666687 72 L 331.666687 72 L 245.799988 72 L 239.399994 65.200012 C 225.799988 50.533325 202.066681 35.733337 183.399994 29.866638 C 165 24.266663 140.066681 22.666687 121.666656 26 Z M 170.066681 55.866638 C 205.133331 64.93335 233.799988 93.599976 243.133331 128.933319 C 246.600006 142.133331 247 164.533325 243.799988 178 C 240.866669 190.533325 231.399994 209.466675 223 219.600006 C 209.533325 235.866669 187.399994 249.466675 167 254 C 154.200012 256.799988 134.466675 256.799988 121.666656 254 C 116.200012 252.799988 106.333344 249.200012 99.666656 245.866669 C 78.333344 235.466675 63.266663 220.399994 53 199.333344 C 45.266663 183.466675 42.733337 172.266663 42.733337 154 C 42.733337 136.133331 45.933319 123.066681 53.666656 108.133331 C 76.066681 65.06665 123.133331 43.866638 170.066681 55.866638 Z M 389.666687 225.733337 L 389.666687 351.600006 L 257 351.600006 L 124.333344 351.600006 L 124.333344 318.133331 L 124.333344 284.666656 L 143.399994 284.533325 C 164.866669 284.399994 177.666656 282 195.666656 274.399994 C 224.600006 262.133331 250.200012 236.933319 263.399994 208.133331 C 268.866638 196.133331 273.400024 176.933319 274.466675 162.133331 C 275.533325 146.399994 273.266663 129.866669 267.666687 112.933319 L 263.399994 100 L 326.466675 100 L 389.666687 100 L 389.666687 225.733337 Z"/>
        <path id="path2" fill="#000000" stroke="none" d="M 130.333344 74.400024 C 129.933319 74.799988 129.666656 94.799988 129.666656 118.666656 L 129.666656 162.266663 L 155 177.200012 C 169 185.333344 181 191.733337 181.533325 191.333344 C 182.866669 190.666656 195 169.466675 195 168.133331 C 194.866669 167.733337 187 162.799988 177.266663 157.200012 L 159.666656 147.066681 L 159 110.533325 L 158.333344 74 L 144.600006 73.866638 C 137.133331 73.866638 130.733337 74.133362 130.333344 74.400024 Z"/>
        <path id="path3" fill="#000000" stroke="none" d="M 445.666687 275.333344 L 445.666687 433.333313 L 389 433.333313 L 332.333313 433.333313 L 329.799988 428.266663 C 322.866638 414.666687 307.266663 401.06665 292.333313 395.600006 C 261 384.266663 225.133331 396.266663 208.066681 424 L 202.333344 433.333313 L 138.733337 433.333313 L 75 433.333313 L 75 448 L 75 462.666687 L 135.399994 462.666687 L 195.799988 462.666687 L 197.399994 472.93335 C 201.799988 500.666687 224.066681 524.93335 251.133331 531.333313 C 275.533325 537.06665 299.400024 530.133301 317.533325 512 C 328.733337 500.93335 334.333313 490.133301 337.400024 474.133301 L 339.666687 462.666687 L 420.06665 462.666687 L 500.333313 462.666687 L 500.333313 466.666687 C 500.333313 488.133301 517.533325 514.533325 538.599976 525.200012 C 560.733337 536.266663 586.599976 535.599976 607.666687 523.333313 C 625.93335 512.533325 641.666687 487.200012 641.666687 468.400024 L 641.666687 462.666687 L 669 462.666687 L 696.333313 462.666687 L 696.333313 361.466675 L 696.333313 260.266663 L 637.400024 188.933319 L 578.333313 117.466675 L 512.06665 117.466675 L 445.666687 117.333344 L 445.666687 275.333344 Z M 616.333313 208.133331 L 668.333313 270.933319 L 668.333313 352.133331 L 668.333313 433.333313 L 652.466675 433.333313 L 636.733337 433.333313 L 631.93335 425.466675 C 610.599976 391.06665 565.400024 380.93335 531.93335 403.200012 C 522.866638 409.200012 513 419.866669 509.266663 427.600006 L 506.466675 433.333313 L 490.466675 433.333313 L 474.333313 433.333313 L 474.599976 297.600006 C 474.733337 223.066681 474.866638 158.266663 475 153.600006 L 475 145.333344 L 519.666687 145.333344 L 564.200012 145.333344 L 616.333313 208.133331 Z M 283.400024 422.666687 C 293.266663 426.399994 303.400024 436.533325 307 446.399994 C 317.799988 475.200012 297.93335 504.400024 267.666687 504.400024 C 250.866669 504.400024 237 495.866699 229.533325 480.666687 C 221.266663 463.866699 224.733337 444.533325 238.333344 431.466675 C 249.666656 420.399994 267.93335 416.93335 283.400024 422.666687 Z M 589 423.866669 C 615.93335 436.533325 622.06665 471.333313 601.133362 492.266663 C 580.06665 513.333313 544.599976 506.666687 532.06665 479.333313 C 527.666687 469.733337 527.799988 454 532.200012 444.799988 C 540.200012 428.399994 553.266663 420.133331 571.666687 420 C 579.266663 420 582.466675 420.666687 589 423.866669 Z"/>
        <path id="path4" fill="#000000" stroke="none" d="M 496.333313 224.666656 L 496.333313 273.333344 L 566.466675 273.333344 C 633.533325 273.333344 636.466675 273.200012 634.733337 270.933319 C 633.799988 269.600006 616.333313 247.733337 595.799988 222.266663 L 558.733337 176 L 527.533325 176 L 496.333313 176 L 496.333313 224.666656 Z M 559 221.600006 C 566.733337 231.200012 573.799988 240.266663 574.733337 241.600006 C 576.466675 243.866669 575.400024 244 550.466675 244 L 524.333313 244 L 524.333313 224.933319 C 524.333313 214.399994 524.733337 205.333344 525.266663 204.933319 C 525.666687 204.399994 530.333313 204 535.533325 204 L 545 204 L 559 221.600006 Z"/>
    </g>
</svg>
