<?xml version="1.0" standalone="no"?>
<!DOCTYPE svg PUBLIC "-//W3C//DTD SVG 20010904//EN"
 "http://www.w3.org/TR/2001/REC-SVG-20010904/DTD/svg10.dtd">
<svg version="1.0" xmlns="http://www.w3.org/2000/svg"
 width="512.000000pt" height="512.000000pt" viewBox="0 0 512.000000 512.000000"
 preserveAspectRatio="xMidYMid meet">

<g transform="translate(0.000000,512.000000) scale(0.100000,-0.100000)"
fill="#000000" stroke="none">
<path d="M383 5106 c-181 -44 -334 -202 -372 -384 -16 -75 -16 -4249 0 -4324
39 -187 200 -348 387 -387 37 -8 487 -11 1518 -11 1605 0 1502 -4 1567 58 43
41 60 81 60 142 0 61 -17 101 -60 142 -61 58 -56 58 -613 58 l-510 0 0 313 c0
283 -2 316 -19 352 -37 81 -96 119 -181 119 -61 -1 -102 -18 -142 -61 -56 -58
-58 -75 -58 -413 l0 -310 -740 0 c-804 0 -782 -1 -808 55 -9 19 -12 258 -12
965 l0 940 780 0 780 0 0 -310 c0 -338 2 -355 58 -413 41 -43 81 -60 142 -60
61 0 101 17 142 60 60 63 58 25 58 925 0 781 -1 825 -19 863 -37 81 -96 119
-181 119 -61 -1 -102 -18 -142 -61 -56 -58 -58 -75 -58 -413 l0 -310 -780 0
-780 0 0 940 c0 707 3 946 12 965 26 56 4 55 808 55 l740 0 0 -310 c0 -258 3
-317 16 -348 54 -130 208 -169 311 -79 71 62 73 74 73 425 l0 312 1140 0 c862
0 1145 -3 1165 -12 57 -26 55 14 55 -1013 l0 -945 -900 0 c-985 0 -940 3
-1003 -58 -104 -98 -74 -264 58 -323 38 -18 91 -19 943 -19 l902 0 0 -935 c0
-1017 2 -977 -55 -1003 -18 -8 -109 -12 -298 -12 -306 0 -323 -4 -384 -73 -90
-103 -51 -257 79 -311 31 -13 87 -16 322 -16 169 0 307 4 338 11 187 39 348
200 387 387 16 75 16 4249 0 4324 -39 187 -200 348 -387 387 -81 17 -4268 14
-4339 -3z"/>
</g>
</svg>
