<?xml version="1.0" standalone="no"?>
<!DOCTYPE svg PUBLIC "-//W3C//DTD SVG 20010904//EN"
 "http://www.w3.org/TR/2001/REC-SVG-20010904/DTD/svg10.dtd">
<svg version="1.0" xmlns="http://www.w3.org/2000/svg"
 width="256.000000pt" height="256.000000pt" viewBox="0 0 256.000000 256.000000"
 preserveAspectRatio="xMidYMid meet">

<g transform="translate(0.000000,256.000000) scale(0.100000,-0.100000)"
fill="#000000" stroke="none">
<path d="M1215 2534 c-27 -15 -286 -153 -575 -306 -289 -154 -533 -289 -543
-300 -23 -28 -21 -62 6 -92 31 -35 1143 -626 1177 -626 34 0 1146 591 1178
626 26 30 28 64 5 92 -21 23 -1136 621 -1173 628 -16 3 -44 -5 -75 -22z m545
-391 c264 -141 477 -260 472 -265 -12 -12 -941 -508 -952 -508 -11 0 -940 496
-952 508 -5 5 207 124 469 264 263 141 479 257 480 257 1 1 218 -115 483 -256z"/>
<path d="M280 1432 c-149 -79 -187 -104 -194 -125 -23 -65 -34 -58 588 -391
337 -180 591 -309 606 -309 15 0 269 129 606 309 616 330 606 324 590 387 -7
28 -35 46 -267 166 -99 51 -130 63 -151 58 -38 -10 -61 -56 -47 -95 8 -24 31
-41 119 -88 60 -33 110 -61 110 -64 0 -8 -945 -510 -960 -510 -15 0 -960 502
-960 510 0 3 50 31 110 63 109 58 130 76 130 117 0 28 -43 70 -72 70 -13 0
-106 -44 -208 -98z"/>
<path d="M280 831 c-90 -49 -172 -99 -182 -111 -23 -28 -23 -62 0 -88 9 -11
271 -156 582 -322 432 -232 573 -303 600 -303 27 0 168 71 600 303 311 166
573 311 583 322 23 28 21 62 -5 92 -30 32 -339 196 -371 196 -60 0 -93 -75
-52 -119 9 -11 57 -41 106 -66 48 -25 90 -49 93 -54 3 -4 -211 -123 -474 -264
l-480 -257 -481 257 c-537 287 -499 257 -384 315 97 49 125 74 125 112 0 41
-32 76 -68 76 -15 0 -101 -41 -192 -89z"/>
</g>
</svg>
