<svg width="2233" height="2264" version="1.1" xmlns="http://www.w3.org/2000/svg" desc="Created with imagetracer.js version 1.2.6" ><path fill="rgb(0,0,0)" stroke="rgb(0,0,0)" stroke-width="1" opacity="0.996078431372549" d="M 1072.5 1 L 1161.5 1 L 1162.5 2 L 1199.5 3 L 1200.5 4 L 1213.5 4 L 1214.5 5 L 1224.5 5 L 1225.5 6 L 1235.5 6 L 1236.5 7 L 1253.5 8 L 1254.5 9 L 1262.5 9 L 1263.5 10 L 1285.5 12 L 1292.5 14 L 1298.5 14 L 1305.5 16 L 1328.5 19 L 1395.5 33 L 1451.5 48 Q 1516.4 67.1 1575.5 92 Q 1685.4 138.6 1778.5 202 Q 1884.4 274.1 1971 365.5 Q 2058.9 458.1 2126 571.5 Q 2186.8 673.5 2226 796 L 2062.5 796 L 2061 794.5 Q 2036.2 724.3 2000.5 665 L 1673.5 665 L 1673 666.5 L 1694 729.5 L 1711 796 L 1551.5 796 L 1551 794.5 L 1528 721.5 L 1505.5 665 L 1176.5 665 L 1176 665.5 L 1176 796 L 1021 796 L 1021 665 L 716.5 665 L 711 677.5 L 695 725.5 L 676 796 L 516.5 796 L 516 792.5 L 530 732.5 L 544 682.5 L 550 665.5 L 233 665 L 196 738.5 L 173 796 L 9.5 796 L 9 793.5 Q 30.1 727.1 58 667.5 Q 86.6 606.1 121 550.5 Q 196.1 429.6 295.5 333 Q 372.3 257.8 463.5 197 Q 551.6 138.1 654.5 94 L 699.5 76 L 744.5 60 L 811.5 40 L 856.5 29 L 917.5 17 L 942.5 14 L 949.5 12 L 963.5 11 L 964.5 10 L 988.5 8 L 989.5 7 L 998.5 7 L 999.5 6 L 1009.5 6 L 1010.5 5 L 1020.5 5 L 1021.5 4 L 1050.5 3 L 1051.5 2 L 1071.5 2 L 1072.5 1 Z M 1353 183 L 1358 189 L 1397 224 Q 1523 346 1606 510 L 1893 510 L 1861 474 Q 1761 367 1630 291 Q 1562 252 1486 223 L 1415 199 L 1353 183 Z M 835 195 L 780 212 L 710 239 Q 650 265 597 296 Q 483 363 394 453 L 342 510 L 611 510 Q 686 349 803 229 L 837 196 L 835 195 Z M 1177 244 L 1176 510 L 1425 510 Q 1375 427 1309 358 Q 1250 294 1177 244 Z M 1021 245 Q 983 271 951 302 Q 855 391 789 509 L 790 510 L 1021 510 L 1021 245 Z " /><path fill="rgb(0,0,0)" stroke="rgb(0,0,0)" stroke-width="1" opacity="0.996078431372549" d="M 42.5 946 L 67.5 946 Q 69 948.5 74.5 947 Q 89.2 949.8 97 959.5 Q 108.7 975.3 115 996.5 L 168 1183.5 L 173.5 1198 L 238 1008.5 L 250 980.5 Q 254.7 970.7 262.5 964 Q 274.2 952.7 292.5 948 L 303.5 947 L 304.5 946 L 334.5 946 L 349.5 949 L 361.5 954 Q 374.3 961.3 383 972.5 L 400 1010.5 L 464.5 1198 L 466 1196.5 L 517 1016.5 L 529 978.5 Q 534 964 545.5 956 Q 561.8 942.8 594.5 946 L 604.5 948 L 618.5 954 L 633 966.5 Q 638.3 973.7 638 986.5 L 634 1004.5 L 624 1034.5 L 543 1266.5 L 532 1291.5 L 522.5 1302 Q 512.2 1311.7 496.5 1316 L 485.5 1317 L 484.5 1318 L 456.5 1318 L 441.5 1315 L 429.5 1310 Q 418 1303.6 410 1293.5 L 402 1278.5 L 391 1251.5 L 319.5 1047 L 246 1254.5 L 230 1290.5 L 220.5 1301 Q 209.3 1311.3 192.5 1316 L 181.5 1318 L 154.5 1318 L 138.5 1315 L 126.5 1310 L 112 1298.5 Q 104 1289.5 99 1277.5 L 90 1253.5 L 4 1005.5 L 0 986.5 L 0 980.5 Q 2.9 964.4 14.5 957 Q 25.8 948.8 42.5 946 Z " /><path fill="rgb(0,0,0)" stroke="rgb(0,0,0)" stroke-width="1" opacity="0.996078431372549" d="M 838.5 946 L 863.5 946 Q 864.8 948.3 869.5 947 Q 882.9 949.6 891 957.5 L 904 979.5 L 911 999.5 L 967 1196.5 L 968.5 1198 L 1034 1006.5 L 1048 975.5 L 1055 966 L 1068.5 956 L 1084.5 949 L 1099.5 946 L 1129.5 946 L 1145.5 949 L 1155.5 953 L 1175 968.5 L 1185 985.5 L 1196 1012.5 L 1259.5 1198 L 1261 1196.5 L 1267 1176.5 L 1319 993.5 L 1329 968.5 L 1339.5 957 Q 1347.5 949.5 1360.5 947 Q 1365.2 948.3 1366.5 946 L 1390.5 946 Q 1405.1 948.4 1415.5 955 L 1428 966.5 L 1433 978.5 L 1433 988.5 L 1429 1005.5 L 1422 1026.5 L 1336 1272.5 L 1329 1288.5 L 1315.5 1304 Q 1305.7 1312.2 1291.5 1316 L 1280.5 1317 L 1279.5 1318 L 1251.5 1318 L 1236.5 1315 L 1224.5 1310 Q 1213.8 1303.8 1206 1294.5 L 1199 1282.5 L 1187 1253.5 L 1114.5 1047 L 1040 1257.5 L 1025 1290.5 L 1013.5 1303 Q 1001.9 1313.4 983.5 1317 Q 978 1315.5 976.5 1318 L 949.5 1318 L 933.5 1315 L 918.5 1308 L 904 1294.5 L 895 1278.5 L 887 1257.5 L 804 1016.5 L 802 1013.5 L 796 991.5 L 796 976.5 Q 799.3 964.3 808.5 958 L 822.5 950 L 838.5 946 Z " /><path fill="rgb(0,0,0)" stroke="rgb(0,0,0)" stroke-width="1" opacity="0.996078431372549" d="M 1633.5 946 L 1658.5 946 Q 1659.7 948.3 1664.5 947 Q 1679.7 949.8 1688 959.5 Q 1699.7 975.8 1706 997.5 L 1759 1185.5 L 1763.5 1198 L 1830 1004.5 L 1842 977.5 L 1856.5 961 Q 1867.2 951.7 1883.5 948 L 1894.5 947 L 1895.5 946 L 1924.5 946 L 1940.5 949 L 1952.5 954 Q 1963.8 960.7 1972 970.5 L 1982 989.5 L 1993 1017.5 L 2055.5 1198 L 2113 997.5 L 2123 970.5 L 2133.5 958 Q 2141.8 949.8 2155.5 947 Q 2160.3 948.3 2161.5 946 L 2185.5 946 L 2198.5 949 L 2209.5 954 L 2222 964.5 L 2228 977.5 L 2228 989.5 L 2220 1018.5 L 2130 1275.5 L 2121 1293.5 L 2109.5 1305 Q 2100.4 1312.9 2086.5 1316 L 2075.5 1318 L 2046.5 1318 L 2031.5 1315 L 2021.5 1311 Q 2010.2 1304.8 2002 1295.5 L 1992 1277.5 L 1980 1247.5 L 1911 1048.5 L 1909.5 1047 L 1837 1253.5 L 1821 1289.5 L 1807.5 1304 L 1792.5 1313 L 1778.5 1317 Q 1773 1315.5 1771.5 1318 L 1744.5 1318 L 1743.5 1317 L 1732.5 1316 L 1715.5 1309 L 1700 1295.5 L 1691 1280.5 L 1680 1251.5 L 1674 1231.5 L 1600 1021.5 L 1592 995.5 L 1591 976.5 Q 1594.7 964.7 1603.5 958 L 1617.5 950 L 1633.5 946 Z " /><path fill="rgb(0,0,0)" stroke="rgb(0,0,0)" stroke-width="1" opacity="0.996078431372549" d="M 3 1447 L 164.5 1447 L 166 1448.5 L 173 1469.5 L 191 1513.5 L 221 1576 L 545 1575.5 L 531 1527.5 L 519 1478.5 L 513 1447 L 670.5 1447 L 672 1448.5 L 686 1505.5 L 708 1576 L 1021 1576 L 1021 1448.5 L 1022.5 1447 L 1176 1447 L 1176 1576 L 1518.5 1576 L 1526 1558.5 L 1540 1517.5 L 1551 1480.5 L 1558 1451.5 L 1560.5 1447 L 1716.5 1447 L 1717 1449.5 L 1701 1513.5 L 1682 1576 L 2012.5 1576 L 2014 1574.5 Q 2046.2 1514.9 2069 1447 L 2231.5 1447 L 2232 1449.5 L 2210 1515.5 L 2184 1579.5 Q 2151.9 1651.4 2112 1715.5 Q 2033.1 1842.1 1927.5 1942 Q 1847.6 2018.1 1752.5 2079 Q 1652.1 2143.6 1532.5 2189 L 1474.5 2209 L 1407.5 2228 L 1359.5 2239 L 1298.5 2250 L 1270.5 2253 L 1262.5 2255 L 1245.5 2256 L 1244.5 2257 L 1213.5 2259 L 1212.5 2260 L 1199.5 2260 L 1198.5 2261 L 1183.5 2261 L 1182.5 2262 L 1161.5 2262 L 1160.5 2263 L 1074.5 2263 L 1073.5 2262 L 1052.5 2262 L 1051.5 2261 L 1010.5 2259 L 1009.5 2258 L 999.5 2258 L 998.5 2257 L 990.5 2257 L 989.5 2256 L 981.5 2256 L 980.5 2255 L 949.5 2252 L 942.5 2250 L 936.5 2250 L 935.5 2249 L 900.5 2244 L 839.5 2231 L 783.5 2216 L 721.5 2196 Q 672.8 2178.7 627.5 2158 Q 412.8 2058.2 261 1895.5 Q 170.9 1800.1 103 1682.5 Q 68.1 1621.9 40 1554.5 L 20 1502.5 L 6 1460.5 L 3 1447 Z M 325 1731 L 325 1734 L 344 1757 L 384 1801 Q 471 1891 582 1959 Q 640 1995 707 2024 L 773 2050 L 826 2067 L 828 2067 L 826 2065 Q 759 2003 707 1927 Q 646 1838 601 1733 L 601 1731 L 325 1731 Z M 774 1731 Q 827 1838 905 1923 Q 956 1978 1021 2019 L 1021 1731 L 774 1731 Z M 1176 1731 L 1176 2012 Q 1243 1970 1298 1916 Q 1381 1835 1442 1732 L 1176 1731 Z M 1619 1731 Q 1549 1877 1444 1990 Q 1398 2040 1345 2082 L 1345 2083 L 1406 2068 L 1484 2042 Q 1544 2019 1599 1990 Q 1718 1926 1813 1838 Q 1866 1789 1911 1732 L 1619 1731 Z " /><path fill="rgb(0,0,0)" stroke="rgb(0,0,0)" stroke-width="1" opacity="0" d="M 0 0 L 2233 0 L 2233 2264 L 0 2264 L 0 987.5 L 1 987.5 L 1 992.5 L 4 1005.5 L 12 1029.5 L 14 1032.5 L 90 1253.5 L 104 1287.5 L 116.5 1303 Q 126.8 1312.2 142.5 1316 L 153.5 1317 L 154.5 1318 L 181.5 1318 L 192.5 1316 L 209.5 1309 L 227 1294.5 L 236 1278.5 L 246 1254.5 L 319.5 1047 L 391 1251.5 L 408 1290.5 L 420.5 1304 L 435.5 1313 L 449.5 1317 Q 455 1315.5 456.5 1318 L 484.5 1318 L 485.5 1317 L 496.5 1316 L 511.5 1310 L 529 1295.5 L 537 1281.5 L 543 1266.5 L 624 1034.5 L 636 997.5 L 638 979.5 Q 635.1 964.9 624.5 958 Q 614.8 950.2 600.5 947 Q 595.8 948.3 594.5 946 L 570.5 946 L 557.5 949 L 549.5 953 L 535 966.5 L 529 978.5 L 522 999.5 L 466 1196.5 L 464.5 1198 L 400 1010.5 L 386 977.5 Q 380.3 966.7 370.5 960 L 355.5 951 L 341.5 947 Q 336 948.5 334.5 946 L 304.5 946 L 303.5 947 L 292.5 948 L 280.5 952 Q 267.5 958.5 258 968.5 L 250 980.5 L 238 1008.5 L 173.5 1198 L 168 1183.5 L 112 987.5 L 102 966.5 L 91.5 954 L 74.5 947 Q 69 948.5 67.5 946 L 42.5 946 L 22.5 952 Q 12.5 957 6 965.5 Q 1.3 970.8 0.5 980 L 0 0 Z M 1073 1 L 1072 2 L 1052 2 L 1051 3 L 1022 4 L 1021 5 L 1011 5 L 1010 6 L 1000 6 L 999 7 L 990 7 L 989 8 L 965 10 L 964 11 L 950 12 L 943 14 L 918 17 L 857 29 L 812 40 L 745 60 L 700 76 L 655 94 Q 552 138 464 197 Q 372 258 296 333 Q 196 430 121 551 Q 87 606 58 668 Q 30 727 9 794 L 10 796 L 173 796 L 196 739 L 233 665 L 550 666 L 544 683 L 530 733 L 516 793 L 517 796 L 676 796 L 695 726 L 711 678 L 717 665 L 1021 665 L 1021 796 L 1176 796 L 1176 666 L 1177 665 L 1506 665 L 1528 722 L 1551 795 L 1552 796 L 1711 796 L 1694 730 L 1673 667 L 1674 665 L 2001 665 Q 2036 724 2061 795 L 2063 796 L 2226 796 Q 2187 673 2126 572 Q 2059 458 1971 366 Q 1884 274 1779 202 Q 1685 139 1576 92 Q 1516 67 1452 48 L 1396 33 L 1329 19 L 1306 16 L 1299 14 L 1293 14 L 1286 12 L 1264 10 L 1263 9 L 1255 9 L 1254 8 L 1237 7 L 1236 6 L 1226 6 L 1225 5 L 1215 5 L 1214 4 L 1201 4 L 1200 3 L 1163 2 L 1162 1 L 1073 1 Z M 839 946 L 823 950 L 809 958 Q 799 964 796 977 L 796 992 L 802 1014 L 804 1017 L 887 1258 L 895 1279 L 904 1295 L 919 1308 L 934 1315 L 950 1318 L 977 1318 Q 978 1316 984 1317 Q 1002 1313 1014 1303 L 1025 1291 L 1040 1258 L 1115 1047 L 1187 1254 L 1199 1283 L 1206 1295 Q 1214 1304 1225 1310 L 1237 1315 L 1252 1318 L 1280 1318 L 1281 1317 L 1292 1316 Q 1306 1312 1316 1304 L 1329 1289 L 1336 1273 L 1422 1027 L 1429 1006 L 1433 989 L 1433 979 L 1428 967 L 1416 955 Q 1405 948 1391 946 L 1367 946 Q 1365 948 1361 947 Q 1348 950 1340 957 L 1329 969 L 1319 994 L 1267 1177 L 1261 1197 L 1260 1198 L 1196 1013 L 1185 986 L 1175 969 L 1156 953 L 1146 949 L 1130 946 L 1100 946 L 1085 949 L 1069 956 L 1055 966 L 1048 976 L 1034 1007 L 969 1198 L 967 1197 L 911 1000 L 904 980 L 891 958 Q 883 950 870 947 Q 865 948 864 946 L 839 946 Z M 1634 946 L 1618 950 L 1604 958 Q 1595 965 1591 977 L 1592 996 L 1600 1022 L 1674 1232 L 1680 1252 L 1691 1281 L 1700 1296 L 1716 1309 L 1733 1316 L 1744 1317 L 1745 1318 L 1772 1318 Q 1773 1316 1779 1317 L 1793 1313 L 1808 1304 L 1821 1290 L 1837 1254 L 1910 1047 L 1911 1049 L 1980 1248 L 1992 1278 L 2002 1296 Q 2010 1305 2022 1311 L 2032 1315 L 2047 1318 L 2076 1318 L 2087 1316 Q 2100 1313 2110 1305 L 2121 1294 L 2130 1276 L 2220 1019 L 2228 990 L 2228 978 L 2222 965 L 2210 954 L 2199 949 L 2186 946 L 2162 946 Q 2160 948 2156 947 Q 2142 950 2134 958 L 2123 971 L 2113 998 L 2056 1198 L 1993 1018 L 1982 990 L 1972 971 Q 1964 961 1953 954 L 1941 949 L 1925 946 L 1896 946 L 1895 947 L 1884 948 Q 1867 952 1857 961 L 1842 978 L 1830 1005 L 1764 1198 L 1759 1186 L 1706 998 Q 1700 976 1688 960 Q 1680 950 1665 947 Q 1660 948 1659 946 L 1634 946 Z M 3 1447 L 6 1461 L 20 1503 L 40 1555 Q 68 1622 103 1683 Q 171 1800 261 1896 Q 413 2058 628 2158 Q 673 2179 722 2196 L 784 2216 L 840 2231 L 901 2244 L 936 2249 L 937 2250 L 943 2250 L 950 2252 L 981 2255 L 982 2256 L 990 2256 L 991 2257 L 999 2257 L 1000 2258 L 1010 2258 L 1011 2259 L 1052 2261 L 1053 2262 L 1074 2262 L 1075 2263 L 1161 2263 L 1162 2262 L 1183 2262 L 1184 2261 L 1199 2261 L 1200 2260 L 1213 2260 L 1214 2259 L 1245 2257 L 1246 2256 L 1263 2255 L 1271 2253 L 1299 2250 L 1360 2239 L 1408 2228 L 1475 2209 L 1533 2189 Q 1652 2144 1753 2079 Q 1848 2018 1928 1942 Q 2033 1842 2112 1716 Q 2152 1651 2184 1580 L 2210 1516 L 2232 1450 L 2232 1447 L 2069 1447 Q 2046 1515 2014 1575 L 2013 1576 L 1682 1576 L 1701 1514 L 1717 1450 L 1717 1447 L 1561 1447 L 1558 1452 L 1551 1481 L 1540 1518 L 1526 1559 L 1519 1576 L 1176 1576 L 1176 1447 L 1023 1447 L 1021 1449 L 1021 1576 L 708 1576 L 686 1506 L 672 1449 L 671 1447 L 513 1447 L 519 1479 L 531 1528 L 545 1576 L 221 1576 L 191 1514 L 173 1470 L 166 1449 L 165 1447 L 3 1447 Z " /><path fill="rgb(0,0,0)" stroke="rgb(0,0,0)" stroke-width="1" opacity="0" d="M 1352.5 183 L 1414.5 199 L 1485.5 223 Q 1562.2 252.3 1629.5 291 Q 1760.9 366.6 1861 473.5 L 1893 509.5 L 1606 510 Q 1522.5 346.2 1396.5 224 L 1357.5 189 L 1352.5 183 Z " /><path fill="rgb(0,0,0)" stroke="rgb(0,0,0)" stroke-width="1" opacity="0" d="M 837.5 194 L 824.5 208 L 803 228.5 Q 686.4 348.9 610.5 510 L 342 509.5 L 393.5 453 Q 483.2 362.7 596.5 296 Q 650.1 264.6 709.5 239 L 779.5 212 L 837.5 194 Z " /><path fill="rgb(0,0,0)" stroke="rgb(0,0,0)" stroke-width="1" opacity="0" d="M 1176.5 244 Q 1249.6 293.9 1309 357.5 Q 1374.6 426.6 1425 510 L 1176 510 L 1176.5 244 Z " /><path fill="rgb(0,0,0)" stroke="rgb(0,0,0)" stroke-width="1" opacity="0" d="M 1020.5 245 L 1021 510 L 789.5 510 L 789 508.5 Q 855.4 390.9 950.5 302 Q 983.4 271.4 1020.5 245 Z " /><path fill="rgb(0,0,0)" stroke="rgb(0,0,0)" stroke-width="1" opacity="0" d="M 324.5 1731 L 600.5 1731 L 601 1732.5 Q 645.9 1837.6 707 1926.5 Q 759.2 2002.8 825.5 2065 L 828 2066.5 L 825.5 2067 L 772.5 2050 L 706.5 2024 Q 640.4 1995.1 581.5 1959 Q 471.3 1891.2 384 1800.5 L 344 1756.5 L 325 1733.5 L 324.5 1731 Z " /><path fill="rgb(0,0,0)" stroke="rgb(0,0,0)" stroke-width="1" opacity="0" d="M 773.5 1731 L 1021 1731 L 1021 2019 Q 955.8 1978.5 905 1922.5 Q 826.8 1838.2 773.5 1731 Z " /><path fill="rgb(0,0,0)" stroke="rgb(0,0,0)" stroke-width="1" opacity="0" d="M 1176 1731 L 1442 1731.5 Q 1380.6 1834.6 1297.5 1916 Q 1242.7 1970.5 1176 2012 L 1176 1731 Z " /><path fill="rgb(0,0,0)" stroke="rgb(0,0,0)" stroke-width="1" opacity="0" d="M 1619 1731 L 1911 1731.5 Q 1865.7 1788.7 1812.5 1838 Q 1717.8 1926.3 1598.5 1990 Q 1543.9 2018.9 1483.5 2042 L 1405.5 2068 L 1344.5 2083 L 1344.5 2082 Q 1398 2039.5 1444 1989.5 Q 1548.7 1877 1619 1731 Z " /></svg>