<?xml version="1.0" standalone="no"?>
<!DOCTYPE svg PUBLIC "-//W3C//DTD SVG 20010904//EN"
 "http://www.w3.org/TR/2001/REC-SVG-20010904/DTD/svg10.dtd">
<svg version="1.0" xmlns="http://www.w3.org/2000/svg"
 width="512.000000pt" height="512.000000pt" viewBox="0 0 512.000000 512.000000"
 preserveAspectRatio="xMidYMid meet">

<g transform="translate(0.000000,512.000000) scale(0.100000,-0.100000)"
fill="#000000" stroke="none">
<path d="M3692 4313 c-13 -3 -43 -23 -66 -46 -61 -59 -66 -91 -66 -437 l0
-290 -517 0 c-583 0 -571 1 -629 -76 l-29 -37 -3 -348 -3 -348 -527 -3 c-469
-3 -530 -5 -557 -20 -40 -22 -81 -66 -94 -101 -7 -18 -11 -145 -11 -342 l0
-314 -527 -3 c-583 -3 -560 -1 -617 -68 -45 -55 -47 -78 -44 -531 l3 -425 27
-41 c16 -24 44 -49 70 -62 l44 -21 2414 0 2414 0 44 21 c26 13 54 38 70 62
l27 41 3 1624 2 1625 -21 44 c-13 27 -37 55 -62 71 l-41 27 -640 1 c-353 1
-651 -1 -664 -3z m1058 -1753 l0 -1390 -2190 0 -2190 0 0 205 0 204 534 3 534
3 39 31 c78 64 78 59 81 422 l3 322 517 0 c481 0 520 2 557 19 46 21 79 54 94
94 7 18 11 150 11 362 l0 334 528 3 c469 3 530 5 557 20 40 22 81 66 94 101 7
18 11 145 11 343 l0 314 410 0 410 0 0 -1390z"/>
</g>
</svg>
